<?xml version="1.0" encoding="utf-8"?>
<!-- Generator: Adobe Illustrator 16.0.3, SVG Export Plug-In . SVG Version: 6.00 Build 0)  -->
<!DOCTYPE svg PUBLIC "-//W3C//DTD SVG 1.1//EN" "http://www.w3.org/Graphics/SVG/1.1/DTD/svg11.dtd">
<svg version="1.1" id="Layer_1" xmlns="http://www.w3.org/2000/svg" xmlns:xlink="http://www.w3.org/1999/xlink" x="0px" y="0px"
	 width="640px" height="480px" viewBox="0 0 640 480" enable-background="new 0 0 640 480" xml:space="preserve">
<path fill="none" stroke="#000000" stroke-width="8" stroke-miterlimit="10" d="M501.647,240c-16.866,24.291-80,136-238.236,120.706
	C151.922,349.931,67.375,199.392,131.259,107.388c51.106-73.604,152.204-91.841,225.808-40.734
	c58.882,40.885,73.472,121.763,32.586,180.646c-32.707,47.106-97.41,58.778-144.516,26.069
	c-37.685-26.166-47.022-77.928-20.855-115.613c20.933-30.148,62.343-37.618,92.491-16.685
	c24.118,16.747,30.094,49.874,13.348,73.992c-13.397,19.295-39.899,24.076-59.194,10.678c-15.436-10.718-19.26-31.919-8.542-47.355"
	/>
</svg>
